<svg width="512" height="512" version="1.1" viewBox="0 0 512 512" xmlns="http://www.w3.org/2000/svg">
    <path d="m0 0v69.818h512c0-38.56-31.259-69.818-69.818-69.818zm0 100.85v69.818h69.818v-69.818zm442.18 0v69.818h69.818v-69.818zm-442.18 100.85v69.82h69.818v-69.82zm442.18 0v69.82h69.818v-69.82zm-442.18 100.85v69.818h442.18c38.56 0 69.818-31.259 69.818-69.818z" fill="#FFF" />
    <path d="m100.85 100.85v69.818h310.3v-37.194c0-18.018-14.606-32.624-32.624-32.624zm0 100.85v69.818h277.68c18.018 0 32.624-14.606 32.624-32.624v-37.194z" fill="#FFF" />
    <g fill="white">
        <path d="m28.622 508.97v-121.16h52.147q20.957 0 32.582 6.7128 11.706 6.7128 18.583 19.811 6.9584 13.016 6.9584 31.517 0 18.092-6.6309 32.336-6.5491 14.244-19.156 22.513-12.607 8.2683-34.546 8.2683zm25.214-17.191h18.828q14.735 0 22.513-4.5844 7.8589-4.5844 12.361-15.472 4.5844-10.969 4.5844-24.395 0-12.852-4.4206-22.758-4.4206-9.9054-12.279-14.981-7.7767-5.1574-26.36-5.1574h-15.227z" />
        <path d="m161.57 508.97v-121.16h75.723v16.618h-50.51v33.809h41.422v16.7h-41.422v36.838h54.357v17.191z" />
        <path d="m359.76 504.14q-7.9411 3.5201-13.835 4.83-5.8942 1.3098-13.425 2.1284-7.4494 0.90051-14.735 0.90051-31.763 0-47.398-17.928-15.636-17.928-15.636-45.68 0-27.916 15.554-45.761 15.636-17.846 49.036-17.846 19.729 0 39.294 4.6662v19.729q-9.4145-3.2745-15.39-4.7481-5.976-1.5554-11.379-2.2921-5.3211-0.73679-10.642-0.73679-20.875 0-30.289 13.425t-9.4145 33.236q0 20.793 10.642 33.646 10.724 12.852 31.845 12.852 17.601 0 35.774-9.0051z" />
        <path d="m381.7 508.97v-121.16h24.231v58.778l46.334-58.778h20.957l-41.995 54.357 52.147 66.8h-31.517l-45.925-59.596v59.596z" />
    </g>

</svg>