<?xml version="1.0" encoding="UTF-8"?>
<svg width="1550.9" height="379.11" version="1.1" viewBox="0 0 1550.9 379.11" xmlns="http://www.w3.org/2000/svg">
    <g fill="white">
        <path d="m0 0v69.818h512c0-38.56-31.259-69.818-69.818-69.818zm0 100.85v69.818h69.818v-69.818zm442.18 0v69.818h69.818v-69.818zm-442.18 100.85v69.82h69.818v-69.82zm442.18 0v69.82h69.818v-69.82zm-442.18 100.85v69.818h442.18c38.56 0 69.818-31.259 69.818-69.818z" />
        <path opacity=".5" d="m100.85 100.85v69.818h310.3v-37.194c0-18.018-14.606-32.624-32.624-32.624zm0 100.85v69.818h277.68c18.018 0 32.624-14.606 32.624-32.624v-37.194z" />
        <path opacity="0" d="m592 0.5v69.318h958.4v-69.318h-958.4z" />
        <g>
            <path d="m592 372.32v-271.47h116.84q46.956 0 73.003 15.041 26.228 15.041 41.637 44.388 15.591 29.164 15.591 70.617 0 40.537-14.857 72.452-14.674 31.915-42.921 50.443-28.247 18.526-77.404 18.526zm56.494-38.518h42.186q33.015 0 50.443-10.272 17.609-10.272 27.696-34.667 10.272-24.577 10.272-54.659 0-28.796-9.9048-50.992-9.9048-22.194-27.512-33.566-17.424-11.556-59.062-11.556h-34.118z" />
            <path d="m869.88 372.32v-271.47h169.66v37.234h-113.17v75.752h92.81v37.418h-92.81v82.539h121.79v38.518z" />
            <path d="m1293.9 361.5q-17.793 7.8871-30.999 10.822-13.206 2.9347-30.08 4.7689-16.691 2.0177-33.015 2.0177-71.168 0-106.2-40.169-35.034-40.169-35.034-102.35 0-62.548 34.85-102.53 35.034-39.986 109.87-39.986 44.205 0 88.042 10.455v44.205q-21.094-7.3368-34.483-10.639-13.39-3.485-25.496-5.1357-11.922-1.6508-23.844-1.6508-46.772 0-67.865 30.08t-21.094 74.468q0 46.589 23.844 75.387 24.028 28.796 71.352 28.796 39.437 0 80.155-20.177z" />
            <path d="m1323.1 372.32v-271.47h54.292v131.7l103.82-131.7h46.956l-94.094 121.79 116.84 149.67h-70.617l-102.9-133.53v133.53z" />
        </g>
    </g>
</svg>